<svg width="18" height="18" viewBox="0 0 18 18" fill="none" xmlns="http://www.w3.org/2000/svg">
<path d="M8.99996 0.666748C4.41663 0.666748 0.666626 4.41675 0.666626 9.00008C0.666626 13.5834 4.41663 17.3334 8.99996 17.3334C13.5833 17.3334 17.3333 13.5834 17.3333 9.00008C17.3333 4.41675 13.5833 0.666748 8.99996 0.666748ZM12.3333 9.83341H9.83329V12.3334C9.83329 12.8334 9.49996 13.1667 8.99996 13.1667C8.49996 13.1667 8.16663 12.8334 8.16663 12.3334V9.83341H5.66663C5.16663 9.83341 4.83329 9.50008 4.83329 9.00008C4.83329 8.50008 5.16663 8.16675 5.66663 8.16675H8.16663V5.66675C8.16663 5.16675 8.49996 4.83341 8.99996 4.83341C9.49996 4.83341 9.83329 5.16675 9.83329 5.66675V8.16675H12.3333C12.8333 8.16675 13.1666 8.50008 13.1666 9.00008C13.1666 9.50008 12.8333 9.83341 12.3333 9.83341Z" fill="#424866" fill-opacity="0.4"/>
</svg>
